<?xml version="1.0" encoding="UTF-8"?><svg width="100px" height="26px" viewBox="0 0 100 26" version="1.1" xmlns="http://www.w3.org/2000/svg" xmlns:xlink="http://www.w3.org/1999/xlink">        <title>Group 24</title>    <desc>Created with Sketch.</desc>    <defs>        <polygon id="path-1" points="0 0 24.1379864 0 24.1379864 26 0 26"></polygon>    </defs>    <g id="Symbols" stroke="none" stroke-width="1" fill="none" fill-rule="evenodd">        <g id="Web-Assets/Navigation" transform="translate(0.000000, -5.000000)">            <g id="Group-24" transform="translate(0.000000, 5.000000)">                <g id="logo-dark">                    <g id="Group-3">                        <mask id="mask-2" fill="white">                            <use xlink:href="#path-1"></use>                        </mask>                        <g id="Clip-2"></g>                        <path d="M14.2452818,24.6704545 C7.88148636,24.6704545 2.72255455,19.3794545 2.72255455,12.8522727 C2.72255455,6.32538636 7.88148636,1.03409091 14.2452818,1.03409091 C17.5679636,1.03409091 20.5600318,2.47827273 22.6630773,4.78577273 C20.3216,1.8655 16.7593045,0 12.7680091,0 C5.71639545,0 -5.90909091e-05,5.82015909 -5.90909091e-05,13 C-5.90909091e-05,20.1798409 5.71639545,26 12.7680091,26 C17.7278045,26 22.0237136,23.1187273 24.1379864,18.9126364 C22.12535,22.3611818 18.4490091,24.6704545 14.2452818,24.6704545" id="Fill-1" fill="#000000" mask="url(#mask-2)"></path>                    </g>                    <polygon id="Fill-4" fill="#000000" points="9.34445909 10.9129091 12.88755 10.9129091 13.5189364 11.544 11.4876864 13.57525"></polygon>                    <path d="M12.7680091,3.03446591 C15.4858955,3.03446591 17.9496909,4.11671591 19.7581682,5.87201136 L10.6478273,14.9448295 L7.34878182,10.9130568 L3.76491818,10.9130568 L10.4439636,19.1396932 L21.4859864,8.097375 C21.4871682,8.09944318 21.4880545,8.10121591 21.4892364,8.10298864 L23.6147364,5.97719318 C21.5241,2.98542045 18.1080545,1.03394318 14.2452818,1.03394318 C7.88148636,1.03394318 2.72255455,6.32523864 2.72255455,12.852125 C2.72255455,12.8928977 2.72521364,12.9327841 2.72550909,12.9732614 C2.78903182,7.47367045 7.25955455,3.03446591 12.7680091,3.03446591" id="Fill-6" fill="#070707"></path>                    <path d="M24.2681045,7.02425455 L22.0501273,9.24252727 C22.0501273,9.24252727 22.0501273,9.24282273 22.0501273,9.24282273 L21.6403318,9.65232273 L18.5150136,12.7773455 L18.5129455,12.7752773 L14.2454,17.0366182 L16.0234455,19.1396636 L22.7937864,12.4857318 C22.8056045,12.6863455 22.8135818,12.8878455 22.8135818,13.0911182 C22.8135818,18.6453682 18.3158773,23.1478 12.7681273,23.1478 C8.09462727,23.1478 4.16685455,19.9527545 3.04471818,15.6252318 C4.26169545,20.8140045 8.81317273,24.6705727 14.2454,24.6705727 C20.6091955,24.6705727 25.7681273,19.3792773 25.7681273,12.8523909 C25.7681273,10.7322091 25.2212409,8.74468636 24.2681045,7.02425455" id="Fill-8" fill="#070707"></path>                </g>                <g id="Text-dark" transform="translate(28.000000, 6.000000)" fill="#000000">                    <g id="Group-2">                        <polygon id="Fill-11" points="0.770072727 0.370027273 4.80674805 12.2944545 7.1020987 12.2944545 9.71408571 4.6384 12.3786701 12.2944545 14.6477221 12.2944545 18.6580987 0.370027273 15.8616701 0.370027273 13.5396701 8.26610909 10.8747351 0.343436364 8.57938442 0.343436364 6.04664416 8.15974545 3.57105974 0.363645455"></polygon>                        <path d="M21.5212208,7.22445455 L23.0044675,3.59000909 L24.4880649,7.22445455 L21.5212208,7.22445455 Z M24.2885455,0.359390909 L21.8350519,0.359390909 L16.7572987,12.3008364 L19.4671169,12.3295545 L20.4941688,9.70485455 L25.4867143,9.70485455 L26.4846623,12.2717636 L29.2803896,12.2717636 L24.2885455,0.359390909 Z" id="Fill-12"></path>                        <polygon id="Fill-13" points="30.5072766 0.359461818 30.5072766 12.3296255 39.0080688 12.3296255 39.0080688 9.90666182 33.159939 9.90666182 33.159939 0.359461818"></polygon>                        <polygon id="Fill-14" points="40.7768143 0.359461818 40.7768143 12.3296255 49.2779571 12.3296255 49.2779571 9.90666182 43.4298273 9.90666182 43.4298273 0.359461818"></polygon>                        <polygon id="Fill-15" points="50.7614143 0.359461818 50.7614143 12.3009073 59.7191026 12.3009073 59.7191026 9.90666182 53.385674 9.90666182 53.385674 7.45498 58.8344143 7.45498 58.8344143 5.11888 53.4144273 5.11888 53.4144273 2.66684364 59.5763883 2.66684364 59.5763883 0.359461818"></polygon>                        <polygon id="Fill-16" points="68.8476273 0.359355455 66.4512896 4.13810091 63.9409909 0.388428182 60.8885883 0.388428182 64.8821338 6.24374636 60.745874 12.3011555 63.6555623 12.3011555 66.3657312 8.26288273 69.0187442 12.2724373 71.9571857 12.2724373 67.9345364 6.18595545 71.9284325 0.359355455"></polygon>                    </g>                </g>            </g>        </g>    </g></svg>