<svg id="Group_43363" data-name="Group 43363" xmlns="http://www.w3.org/2000/svg" xmlns:xlink="http://www.w3.org/1999/xlink" width="110" height="35.424" viewBox="0 0 110 35.424">
  <defs>
    <clipPath id="clip-path">
      <rect id="Rectangle_19298" data-name="Rectangle 19298" width="110" height="35.423" fill="none"/>
    </clipPath>
  </defs>
  <rect id="Rectangle_19297" data-name="Rectangle 19297" width="30.719" height="22.477" transform="translate(5.994 11.822)" fill="#fff"/>
  <g id="Group_43361" data-name="Group 43361" transform="translate(0 0)">
    <g id="Group_43360" data-name="Group 43360" clip-path="url(#clip-path)">
      <path id="Path_80070" data-name="Path 80070" d="M.4,35.02c-.4,0-.4,0-.4-.409Q0,17.479,0,.349C0,.02.017,0,.346,0H36.97c.352,0,.366.016.366.408V34.6c0,.415-.008.422-.425.422H.4m10.237-8.551h0v6.1c0,.362,0,.364.37.364h5.513a5.014,5.014,0,0,1,.541.036c.282.029.346-.016.343-.3-.008-.653-.037-1.3-.038-1.957q-.007-4.093,0-8.188c0-.221-.008-.442,0-.662.032-.593.245-.913.739-1.015a2.223,2.223,0,0,1,.82-.011.964.964,0,0,1,.8.979c0,.118,0,.236,0,.355V32.594c0,.343,0,.346.34.346h5.42c.382,0,.384,0,.384-.38V26.147q0-2.177.005-4.353a.868.868,0,0,1,.533-.849,1.583,1.583,0,0,1,1.221-.033.783.783,0,0,1,.51.6,2.871,2.871,0,0,1,.052.611q.006,5.24,0,10.482c0,.173-.017.332.241.332q3.134-.007,6.27,0c.195,0,.269-.084.263-.272-.007-.226,0-.458,0-.687V20.812a4.475,4.475,0,0,0-.9-2.8,5.96,5.96,0,0,0-2.078-1.673,9.479,9.479,0,0,0-4.273-1.045,14.629,14.629,0,0,0-1.53.09,5.732,5.732,0,0,0-3.237,1.307.25.25,0,0,1-.352.028.224.224,0,0,1-.032-.033,4.824,4.824,0,0,0-.761-.555,7.344,7.344,0,0,0-3.079-.828,10.8,10.8,0,0,0-2.82.16,8.514,8.514,0,0,0-2.452.823,4.948,4.948,0,0,0-2.808,4.558c-.011,1.877,0,3.755,0,5.632" transform="translate(0 0)" fill="#2a6dae"/>
      <path id="Path_80071" data-name="Path 80071" d="M57.581,20.974h8.112a9.715,9.715,0,0,1,3.874.651,6.3,6.3,0,0,1,2.44,1.868,7.74,7.74,0,0,1,1.4,2.833,13.132,13.132,0,0,1,.434,3.423,11.9,11.9,0,0,1-.644,4.393,7.269,7.269,0,0,1-1.79,2.613,5.838,5.838,0,0,1-2.458,1.4,12.692,12.692,0,0,1-3.254.482H57.581Zm5.457,4v9.654h1.338a5.635,5.635,0,0,0,2.434-.376,2.576,2.576,0,0,0,1.129-1.326,8.316,8.316,0,0,0,.41-3.067q0-2.808-.916-3.844A3.879,3.879,0,0,0,64.4,24.979Z" transform="translate(-14.237 -5.184)" fill="#fff"/>
      <path id="Path_80072" data-name="Path 80072" d="M99.961,35.709h-6.2L92.9,38.626H87.328l6.641-17.669h5.956l6.638,17.669h-5.717Zm-1.129-3.821L96.88,25.534,94.95,31.886Z" transform="translate(-21.592 -5.182)" fill="#fff"/>
      <path id="Path_80073" data-name="Path 80073" d="M137.294,35.936q1.025.71,1.338.891.47.265,1.265.615L138.378,40.5a17.679,17.679,0,0,1-2.267-1.32q-1.12-.766-1.566-1.151a11.442,11.442,0,0,1-4.532.784,9.137,9.137,0,0,1-6.352-2.1,8.93,8.93,0,0,1-2.748-6.979,9.183,9.183,0,0,1,2.405-6.779,9.076,9.076,0,0,1,6.719-2.416,9.257,9.257,0,0,1,6.792,2.362q2.393,2.362,2.392,6.761a9.579,9.579,0,0,1-1.929,6.267m-4.182-2.8a7.377,7.377,0,0,0,.651-3.495,5.817,5.817,0,0,0-.994-3.821,3.443,3.443,0,0,0-2.742-1.145,3.323,3.323,0,0,0-2.639,1.169,5.483,5.483,0,0,0-1.013,3.652,6.4,6.4,0,0,0,.988,4.065,3.361,3.361,0,0,0,2.71,1.169,4.959,4.959,0,0,0,1.049-.108,6.772,6.772,0,0,0-2.17-1.254l.856-1.964a4.651,4.651,0,0,1,1.129.325,14.481,14.481,0,0,1,1.572,1.012q.278.193.6.4" transform="translate(-29.897 -5.08)" fill="#fff"/>
    </g>
  </g>
</svg>
